<svg width="49" height="63" viewBox="0 0 49 63" fill="none" xmlns="http://www.w3.org/2000/svg">
<path d="M24.2483 18.3996C24.5872 19.9121 24.5981 21.4965 24.303 23.021C23.9968 24.4494 23.3737 25.9859 22.4991 27.2103C20.9138 29.1909 18.935 30.4513 16.5407 31.0515V57.2076C16.5407 58.4799 16.1799 59.7043 15.36 60.6046C14.54 61.5049 13.4249 62.009 12.1676 62.009C11.1071 62.009 9.99419 61.5049 9.17314 60.6046C8.35318 59.7043 7.79452 58.4799 7.79452 57.2076V31.0515C5.59267 30.5713 3.51545 29.2269 2.02204 27.2463C1.13539 26.0219 0.516492 24.5935 0.213218 23.057C-0.0900562 21.5205 -0.0695573 19.9361 0.273129 18.4116L3.57558 2.04454C3.66851 1.58215 3.9145 1.17391 4.26544 0.898183C4.61528 0.622338 5.04713 0.498496 5.47569 0.550388C5.90535 0.601716 6.3033 0.826521 6.59192 1.18135C6.88055 1.53606 7.03798 1.99532 7.03579 2.47067V19.756H8.93481L10.8032 1.97972C10.8469 1.5866 11.0197 1.2248 11.293 0.962283C11.5554 0.699882 11.9052 0.55489 12.1676 0.55489C12.6268 0.55489 12.9766 0.699882 13.239 0.962283C13.5123 1.2248 13.5889 1.5866 13.731 1.97972L15.6005 19.756H17.4153V2.47067C17.4153 1.99892 17.6668 1.54254 17.8526 1.18831C18.2353 0.834084 18.6289 0.606974 19.0552 0.550388C19.4816 0.498916 19.8205 0.624379 20.2688 0.902505C20.6186 1.18063 20.8591 1.59164 20.9575 2.05654L24.2483 18.3996ZM49 57.2076C49 58.4799 48.5408 59.7043 47.7209 60.6046C46.9009 61.5049 45.7858 62.009 44.6269 62.009C43.468 62.009 42.3529 61.5049 41.5329 60.6046C40.713 59.7043 40.2538 58.4799 40.2538 57.2076V42.8031H38.4171C37.4988 42.8031 36.5804 42.5991 35.7277 42.2149C34.8858 41.8188 34.1096 41.2546 33.4537 40.5344C32.8086 39.8142 32.2948 38.9619 31.8465 38.0256C31.5951 37.0894 31.4202 36.081 31.4202 35.0727L31.4092 21.4125C31.5076 16.9831 32.7212 12.6498 34.9842 8.98628C37.2473 5.31675 40.4506 2.47667 44.2005 0.830843C44.6378 0.598211 45.3047 0.51164 45.8732 0.578777C46.4417 0.64589 46.9884 0.864573 47.4585 1.2158C47.9286 1.56703 48.3222 2.03974 48.5846 2.59431C48.8579 3.14768 48.9016 3.76467 49 4.39126V57.2076Z" fill="#F5F5F5"/>
</svg>
