<svg width="698" height="420" viewBox="0 0 698 420" fill="none" xmlns="http://www.w3.org/2000/svg">
<g clip-path="url(#clip0_69_209)">
<path d="M36.4176 419.061C36.3709 418.856 31.8549 398.246 41.0777 381.128C50.3005 364.012 69.9874 356.463 70.1852 356.388L71.085 356.051L71.2975 356.989C71.3442 357.195 75.8602 377.804 66.6374 394.922C57.415 412.039 37.7277 419.588 37.5299 419.662L36.6297 420L36.4176 419.061ZM69.8511 358.341C65.9076 360.039 50.3439 367.469 42.5545 381.925C34.7643 396.384 37.1146 413.482 37.8641 417.71C41.8059 416.016 57.3634 408.598 65.1606 394.125C72.9504 379.668 70.6009 362.571 69.8511 358.341V358.341Z" fill="#FCD9B6"/>
<path d="M59.5894 388.918C43.0155 398.897 36.6324 418.719 36.6324 418.719C36.6324 418.719 57.1208 422.361 73.6947 412.382C90.2686 402.402 96.6517 382.581 96.6517 382.581C96.6517 382.581 76.1633 378.939 59.5894 388.918Z" fill="#B26B54" fill-opacity="0.8"/>
<path d="M310.58 228.941C310.832 227.635 310.796 226.29 310.473 225C310.15 223.71 309.548 222.506 308.71 221.474C307.872 220.442 306.818 219.606 305.623 219.026C304.427 218.446 303.119 218.135 301.79 218.115L294.115 198.798L281.248 200.603L292.47 227.73C292.585 229.966 293.515 232.082 295.085 233.677C296.655 235.273 298.755 236.236 300.987 236.386C303.22 236.535 305.429 235.859 307.197 234.487C308.965 233.115 310.169 231.142 310.58 228.941Z" fill="#9F616A"/>
<path d="M286.875 222.153L282.888 212.639L258.043 165.309L259.394 77.7323L259.653 77.6979C275.551 75.5959 286.307 148.903 286.757 152.025L302.454 205.754L306.191 217.596L286.875 222.153Z" fill="#CB3E44"/>
<path d="M248.7 406.823L260.779 406.822L266.526 360.192L248.697 360.193L248.7 406.823Z" fill="#9F616A"/>
<path d="M245.618 402.876L269.407 402.875H269.408C273.429 402.875 277.285 404.474 280.128 407.319C282.971 410.164 284.568 414.023 284.569 418.047V418.54L245.619 418.542L245.618 402.876Z" fill="#2F2E41"/>
<path d="M137.632 388.404L147.543 395.316L178.897 360.348L164.27 350.146L137.632 388.404Z" fill="#9F616A"/>
<path d="M137.359 383.403L156.877 397.014L156.878 397.014C160.176 399.315 162.427 402.833 163.134 406.794C163.841 410.755 162.947 414.835 160.648 418.137L160.366 418.541L128.41 396.256L137.359 383.403Z" fill="#2F2E41"/>
<path d="M242.061 395.862L241.539 308.388L233.938 253.385L219.768 301.755L219.741 301.795L168.389 376.405L148.408 366.273L148.517 366.013C149.738 363.106 178.512 294.837 186.246 294.837C186.922 294.885 187.598 294.767 188.218 294.494C188.838 294.222 189.382 293.802 189.804 293.272C192.074 290.239 190.226 283.802 190.207 283.737C187.993 274.549 193.56 271.42 194.668 270.897L197.65 209.288L197.96 209.309L278.805 214.984L275.413 292.013L268.117 392.935L267.867 392.964L242.061 395.862Z" fill="#2F2E41"/>
<path d="M280.04 228.636L279.69 228.608L192.743 221.594L192.958 192.802L197.214 117.627L197.238 117.574L214.568 79.9201L226.854 74.3527L244.778 73.4087L244.821 73.4197L261.179 77.4755L278.195 199.725L280.04 228.636Z" fill="#CB3E44"/>
<path d="M247.586 63.7587C258.68 57.6895 262.757 43.7691 256.693 32.6666C250.628 21.5641 236.719 17.4838 225.625 23.553C214.532 29.6222 210.454 43.5426 216.519 54.6451C222.583 65.7476 236.492 69.8279 247.586 63.7587Z" fill="#9F616A"/>
<path d="M213.583 49.4068V40.4804C213.583 40.4804 206.39 32.0021 214.303 29.8664C214.303 29.8664 216.46 8.50964 235.162 18.4761C235.162 18.4761 261.057 14.2048 258.179 29.1545C258.179 29.1545 264.653 25.2516 262.495 35.2181L258.322 51.2724C258.322 51.2724 260.337 40.6674 253.864 39.2436L250.267 37.1079C250.267 37.1079 240.197 47.0744 225.092 34.9722C225.092 34.9722 218.618 33.4259 219.338 39.833C220.057 46.24 213.583 49.4068 213.583 49.4068Z" fill="#2F2E41"/>
<path d="M234.222 207.135C234.237 205.806 233.96 204.489 233.411 203.278C232.861 202.067 232.054 200.991 231.044 200.126C230.035 199.261 228.848 198.628 227.568 198.272C226.288 197.916 224.945 197.845 223.634 198.064L212.62 180.439L200.286 184.526L216.189 209.197C216.703 211.376 217.998 213.291 219.828 214.578C221.659 215.866 223.898 216.436 226.12 216.182C228.343 215.928 230.396 214.867 231.889 213.2C233.382 211.532 234.212 209.375 234.222 207.135Z" fill="#9F616A"/>
<path d="M205.775 201.58L185.848 161.092L185.866 160.993C185.946 160.545 193.967 115.973 200.102 99.5896C206.275 83.1025 214.726 79.7923 215.082 79.6594L215.261 79.593L222.838 86.8666L212.342 156.979L223.655 190.794L205.775 201.58Z" fill="#CB3E44"/>
<path d="M698 0H659.418V38.6125H698V0Z" fill="#F1F1F1"/>
<path d="M396.056 150.253H357.474V188.865H396.056V150.253Z" fill="#F1F1F1"/>
<path d="M379.129 171.945H684.155V17.4041H379.129V171.945Z" fill="white"/>
<path d="M686.672 174.463H376.613V14.8857H686.672V174.463ZM381.645 169.427H681.639V19.9222H381.645V169.427Z" fill="#E5E5E5"/>
<path d="M650.425 71.6143H415.742V79.4032H650.425V71.6143Z" fill="#E5E5E5"/>
<path d="M650.425 90.5034H415.742V98.2924H650.425V90.5034Z" fill="#E5E5E5"/>
<path d="M650.425 118.394H606.811V125.153H650.425V118.394Z" fill="#CB3E44"/>
<path d="M320.397 419.966H0.838735C0.616288 419.966 0.402952 419.878 0.245659 419.72C0.0883658 419.563 0 419.349 0 419.127C0 418.904 0.0883658 418.691 0.245659 418.533C0.402952 418.376 0.616288 418.287 0.838735 418.287H320.397C320.619 418.287 320.832 418.376 320.99 418.533C321.147 418.691 321.235 418.904 321.235 419.127C321.235 419.349 321.147 419.563 320.99 419.72C320.832 419.878 320.619 419.966 320.397 419.966Z" fill="#CBCBCB"/>
</g>
<defs>
<clipPath id="clip0_69_209">
<rect width="698" height="420" fill="white"/>
</clipPath>
</defs>
</svg>
