<svg width="49" height="65" viewBox="0 0 49 65" fill="none" xmlns="http://www.w3.org/2000/svg">
<path d="M12.25 14.4323C12.25 6.74931 17.7297 0.521973 24.5 0.521973C31.2703 0.521973 36.75 6.74931 36.75 14.4323V20.3938H43.75C46.6484 20.3938 49 23.0641 49 26.3554V52.1888C49 58.7713 44.2969 64.1119 38.5 64.1119H10.5C4.70094 64.1119 0 58.7713 0 52.1888V26.3554C0 23.0641 2.35047 20.3938 5.25 20.3938H12.25V14.4323ZM17.5 20.3938H31.5V14.4323C31.5 10.0418 28.3609 6.48353 24.5 6.48353C20.6391 6.48353 17.5 10.0418 17.5 14.4323V20.3938ZM14.875 32.3169C16.3297 32.3169 17.5 30.988 17.5 29.3361C17.5 27.6843 16.3297 26.3554 14.875 26.3554C13.4203 26.3554 12.25 27.6843 12.25 29.3361C12.25 30.988 13.4203 32.3169 14.875 32.3169ZM34.125 26.3554C32.6703 26.3554 31.5 27.6843 31.5 29.3361C31.5 30.988 32.6703 32.3169 34.125 32.3169C35.5797 32.3169 36.75 30.988 36.75 29.3361C36.75 27.6843 35.5797 26.3554 34.125 26.3554Z" fill="#F5F5F5"/>
</svg>
