<svg width="50" height="64" viewBox="0 0 50 64" fill="none" xmlns="http://www.w3.org/2000/svg">
<path d="M46.1827 55.4027L28.5723 55.5126V59.4176C28.5723 61.5795 26.9876 63.3251 25.0123 63.3251C23.0403 63.3251 21.43 61.577 21.43 59.4201V55.515L3.69684 55.5138C0.516263 55.5138 -1.17893 51.3036 0.941457 48.629L8.63957 38.9134H6.94661C4.11088 38.9134 2.5775 35.2757 4.41666 32.9161L11.1584 24.2674H9.95868C7.58384 24.2674 6.29041 21.5208 7.80704 19.713L22.8506 1.82964C24.0112 0.450245 26 0.450245 27.1606 1.82924L42.2153 19.7126C43.7353 21.5204 42.4386 24.267 40.0637 24.267H38.8618L45.5968 32.9169C47.4337 35.2778 45.8999 38.913 43.0657 38.913H41.3694L49.0675 48.6286C51.1935 51.3256 49.4525 55.4027 46.1827 55.4027Z" fill="#F5F5F5"/>
</svg>
