<svg width="234" height="219" viewBox="0 0 234 219" fill="none" xmlns="http://www.w3.org/2000/svg">
<path d="M15.9431 205.403C14.8181 205.403 13.6909 205.456 12.5901 205.564L12.4298 205.58C5.12792 206.326 -0.213125 210.65 0.00653582 215.641L0.0489996 216.543C0.0770066 217.113 0.106843 217.727 0.1314 218.407C0.1447 218.743 0.541119 219 1.03439 219H180.644C193.308 218.911 205.925 218.8 218.144 218.668C220.438 218.673 222.729 218.536 225.005 218.257C228.401 217.793 230.758 216.873 232.211 215.445C234.018 213.673 234.075 211.442 233.966 208.922C233.744 203.832 233.523 198.487 233.303 193.156C233.108 188.459 232.914 183.774 232.72 179.288C232.601 176.627 232.334 174.277 230.282 172.481C228.057 170.539 224 169.555 218.223 169.555C218.153 169.555 218.083 169.555 218.013 169.555C199.907 169.63 181.967 176.82 173.372 187.447C172.383 188.671 171.46 189.981 170.568 191.248C169.265 193.193 167.825 195.044 166.262 196.786C165.393 197.725 164.441 198.582 163.417 199.347C163.347 199.403 163.267 199.463 163.183 199.519C162.989 199.664 162.788 199.805 162.591 199.93C161.451 200.691 160.236 201.33 158.962 201.835L158.835 201.884C158.74 201.924 158.636 201.963 158.532 201.999C157.799 202.271 157.05 202.501 156.291 202.691C153.015 203.525 149.289 203.724 145.219 203.284C141.459 202.864 137.763 201.994 134.209 200.693C130.44 199.317 126.911 197.602 123.499 195.943C122 195.214 120.45 194.46 118.902 193.746C118.61 193.612 118.324 193.481 118.034 193.35C116.143 192.498 114.429 191.796 112.793 191.201C108.775 189.728 104.57 188.829 100.303 188.529C95.8001 188.244 91.8322 188.781 88.5114 190.121C87.5895 190.493 86.6972 190.937 85.8443 191.448C81.9116 193.807 79.487 197.288 77.1425 200.655C74.2263 204.843 71.2105 209.173 65.2553 211.418C58.3838 214.01 48.3535 212.933 41.2573 211.06C39.0262 210.471 36.7979 209.793 34.6428 209.138C33.7724 208.873 32.9014 208.61 32.0298 208.349C30.317 207.838 28.9152 207.447 27.6183 207.116L27.2082 207.012C26.98 206.954 26.7516 206.897 26.5191 206.842C24.9787 206.469 23.5443 206.175 22.1318 205.944L21.7976 205.887C21.1276 205.785 20.5012 205.701 19.8865 205.629L19.6412 205.601C18.4129 205.468 17.1784 205.402 15.9431 205.403Z" fill="#3C4F53"/>
<path d="M113.755 107.925C113.214 108.003 112.663 107.962 112.139 107.804C111.616 107.645 111.134 107.373 110.727 107.008C110.32 106.642 109.998 106.191 109.783 105.688C109.568 105.184 109.466 104.638 109.484 104.091L97.0837 99.31L102.698 95.2812L113.612 100.438C114.528 100.53 115.379 100.955 116.003 101.633C116.627 102.311 116.981 103.196 116.999 104.118C117.017 105.041 116.696 105.939 116.098 106.64C115.5 107.342 114.666 107.8 113.754 107.925H113.755Z" fill="#FFB7B7"/>
<path d="M106.669 104.496L108.606 97.6447L108.51 97.5796L90.3754 85.2208L74.6989 69.4407L65.5669 73.1006L66.1667 76.0006L66.2055 76.0359L87.0486 94.7649L87.0677 94.774L106.669 104.496Z" fill="#3F3D56"/>
<path d="M88.0913 120.145L60.0254 116.198L62.4952 98.9209H83.1577L88.0913 120.145Z" fill="#FFB6B6"/>
<path d="M40.4023 204.745L46.1598 206.088L54.0601 184.448L45.5628 182.467L40.4023 204.745Z" fill="#FFB6B6"/>
<path d="M35.0454 214.044L39.1741 215.007L40.8169 211.268L41.7985 215.619L52.7491 218.172C53.274 218.294 53.824 218.245 54.3192 218.031C54.8143 217.818 55.2285 217.451 55.5007 216.985C55.7735 216.518 55.8907 215.977 55.8349 215.44C55.779 214.902 55.5531 214.396 55.1902 213.996L47.8492 205.898L48.765 201.945L39.4396 200.352L35.0454 214.044Z" fill="#2F2E41"/>
<path d="M75.9263 207.964H81.8372L84.6497 185.092H75.9263V207.964Z" fill="#FFB6B6"/>
<path d="M72.8066 218.238H77.0453L77.8017 214.223L79.7396 218.238H90.9816C91.5206 218.238 92.0455 218.065 92.4792 217.745C92.9135 217.425 93.2341 216.973 93.3946 216.457C93.5551 215.941 93.5466 215.387 93.371 214.876C93.1953 214.365 92.8612 213.924 92.4179 213.616L83.4403 207.396V203.337L73.9973 203.903L72.8066 218.238Z" fill="#2F2E41"/>
<path d="M59.67 113.266L87.1174 111.076C95.2169 130.057 90.0668 160.358 83.8424 194.469L75.0144 195.613L74.3295 140.802L52.1986 191.793L42.9973 191.321L59.67 113.266Z" fill="#2F2E41"/>
<path d="M75.6469 63.2839V53.9684C75.6469 50.6576 74.336 47.4825 72.0026 45.1415C69.6691 42.8005 66.5043 41.4854 63.2042 41.4854C59.904 41.4854 56.7392 42.8005 54.4058 45.1415C52.0723 47.4825 50.7614 50.6576 50.7614 53.9684C48.5681 58.5527 49.9401 60.7326 50.7614 63.2839C50.7619 63.7285 50.938 64.1544 51.2515 64.4682C51.5646 64.7826 51.9888 64.9592 52.4321 64.9602H73.9757C74.4186 64.9597 74.8433 64.7826 75.1568 64.4687C75.4698 64.1544 75.6464 63.7285 75.6469 63.2839Z" fill="#2F2E41"/>
<path d="M66.2748 64.8195C71.3131 64.8195 75.3978 60.7221 75.3978 55.6674C75.3978 50.6128 71.3131 46.5154 66.2748 46.5154C61.2365 46.5154 57.1519 50.6128 57.1519 55.6674C57.1519 60.7221 61.2365 64.8195 66.2748 64.8195Z" fill="#FFB7B7"/>
<path d="M78.5907 54.7131C78.5877 52.0952 77.5495 49.5855 75.7042 47.7343C73.8594 45.8831 71.3573 44.8418 68.7476 44.8389H66.8907C64.281 44.8418 61.7789 45.8831 59.9341 47.7343C58.0888 49.5855 57.0506 52.0952 57.0476 54.7131V54.8998C58.4385 55.8536 59.759 55.9933 60.9728 54.8998L62.3113 51.1395L62.5791 54.8998H64.6076L65.2839 53.0025L65.4193 54.8998C68.1593 57.2407 73.3405 56.119 78.5907 54.8998V54.7131Z" fill="#2F2E41"/>
<path d="M60.9553 103.971L84.1827 103.084L85.481 87.8397C86.4824 85.0492 86.4985 82.6518 85.5293 80.7187C84.6955 79.1297 83.2945 77.9151 81.6067 77.3176L76.5241 71.1594C75.8704 70.3676 75.0491 69.7318 74.1207 69.2974C73.1917 68.8629 72.1787 68.6409 71.1542 68.6474L57.9475 68.7383C57.6295 68.546 55.6986 67.5615 51.8907 69.2171C47.7603 71.0125 48.7194 77.2515 48.7297 77.3146L48.7393 77.3731L48.7846 77.413L57.5686 84.8358L60.9553 103.971Z" fill="#3F3D56"/>
<path d="M166.804 77.1677C151.816 94.1135 106.719 97.346 77.3654 128.452C67.5244 98.385 81.4657 46.4844 95.3593 26.692C102.032 17.1873 112.194 10.7309 123.611 8.74314C135.028 6.75534 146.764 9.39903 156.239 16.0926C175.968 30.0311 182.82 59.0609 166.804 77.1677Z" fill="#B26B54" fill-opacity="0.8"/>
<path d="M130.487 60.9111C138.357 60.9111 144.737 54.5107 144.737 46.6159C144.737 38.7209 138.357 32.3208 130.487 32.3208C122.617 32.3208 116.238 38.7209 116.238 46.6159C116.238 54.5107 122.617 60.9111 130.487 60.9111Z" fill="white"/>
<path d="M65.3196 144.02C70.4742 144.02 74.6525 139.828 74.6525 134.657C74.6525 129.485 70.4742 125.294 65.3196 125.294C60.1651 125.294 55.9868 129.485 55.9868 134.657C55.9868 139.828 60.1651 144.02 65.3196 144.02Z" fill="#B26B54" fill-opacity="0.8"/>
<path d="M54.6428 133.98C54.2362 133.613 53.9146 133.162 53.7007 132.657C53.4869 132.153 53.3857 131.608 53.4048 131.06C53.4235 130.512 53.5618 129.975 53.8094 129.487C54.0575 128.999 54.4093 128.571 54.8395 128.233L50.5505 115.62L57.2334 117.362L60.2784 129.071C60.7962 129.835 61.0161 130.763 60.8974 131.678C60.7786 132.593 60.3292 133.434 59.6343 134.039C58.9388 134.644 58.0466 134.972 57.1267 134.961C56.2063 134.95 55.3221 134.601 54.6413 133.98L54.6428 133.98Z" fill="#FFB7B7"/>
<path d="M52.7266 126.326L59.2106 123.427L57.0322 101.425L59.0612 79.2396L50.4042 74.5522L48.57 76.8724V76.9254L47.5981 104.98L47.6033 105.001L52.7266 126.326Z" fill="#3F3D56"/>
<path d="M207.325 168.057C206.873 169.763 205.682 171.183 204.244 172.217C204.01 172.387 203.769 172.544 203.526 172.691C203.451 172.735 203.376 172.782 203.297 172.823C203.213 172.873 203.129 172.92 203.044 172.964H196.285C196.163 172.716 196.044 172.465 195.925 172.217C193.028 166.11 190.994 159.52 191.34 152.808C191.478 150.204 192.023 147.638 192.956 145.205C194.813 140.355 198.2 136.157 202.86 134.044C202.976 133.991 203.097 133.937 203.216 133.887C203.178 134.022 203.141 134.154 203.103 134.288C202.604 136.095 202.25 137.939 202.047 139.803C202.028 139.947 202.013 140.091 202 140.239C201.556 144.734 201.95 149.273 203.163 153.623C203.166 153.632 203.169 153.645 203.172 153.654C203.438 154.617 203.747 155.565 204.097 156.498C204.373 157.234 204.669 157.962 204.994 158.677C206.351 161.677 208.169 164.875 207.325 168.057Z" fill="#E3D878"/>
<path d="M203.3 134.028C203.235 134.116 203.169 134.201 203.103 134.288C201.731 136.113 200.565 138.086 199.628 140.17C199.578 140.273 199.531 140.377 199.491 140.483C198.207 143.394 197.383 146.486 197.047 149.651C197.044 149.672 197.042 149.694 197.04 149.716C196.962 150.457 196.916 151.202 196.897 151.949C196.828 153.347 196.978 154.748 197.344 156.1C197.677 157.203 198.261 158.214 199.05 159.053C199.128 159.137 199.206 159.222 199.291 159.304C199.353 159.369 199.422 159.436 199.488 159.498C200.119 160.103 200.81 160.664 201.403 161.313C201.676 161.604 201.921 161.919 202.138 162.254C202.483 162.815 202.706 163.443 202.792 164.097C202.879 164.751 202.826 165.416 202.638 166.047C202.213 167.634 201.241 168.973 200.247 170.249C199.75 170.888 199.238 171.534 198.794 172.217C198.631 172.462 198.481 172.71 198.344 172.964H197.95C198.081 172.71 198.225 172.462 198.382 172.217C199.522 170.415 201.144 168.866 201.985 166.882C202.553 165.543 202.725 164.025 202.006 162.711C201.796 162.329 201.541 161.974 201.247 161.652C200.675 161.003 199.991 160.448 199.369 159.862C199.213 159.715 199.059 159.564 198.912 159.407C198.134 158.614 197.533 157.662 197.15 156.617C196.716 155.289 196.512 153.897 196.544 152.5C196.544 151.61 196.591 150.713 196.678 149.823C196.688 149.71 196.7 149.594 196.712 149.478C197.352 143.875 199.474 138.546 202.86 134.044C202.922 133.956 202.988 133.871 203.054 133.787C203.188 133.611 203.434 133.855 203.3 134.028Z" fill="white"/>
<path d="M196.839 149.853C195.756 149.67 194.774 149.108 194.067 148.266C193.36 147.424 192.974 146.357 192.978 145.256C192.979 145.211 192.997 145.168 193.028 145.136C193.06 145.104 193.102 145.086 193.147 145.085C193.192 145.084 193.235 145.1 193.268 145.13C193.301 145.161 193.321 145.203 193.323 145.248C193.317 146.273 193.677 147.267 194.337 148.05C194.997 148.833 195.914 149.353 196.923 149.517C197.143 149.553 197.057 149.888 196.839 149.853Z" fill="white"/>
<path d="M198.964 159.116C200.803 157.826 202.089 155.889 202.568 153.689C202.615 153.472 202.95 153.557 202.903 153.774C202.4 156.062 201.057 158.076 199.141 159.413C198.958 159.54 198.782 159.243 198.964 159.116Z" fill="white"/>
<path d="M199.525 140.133C199.929 140.291 200.366 140.346 200.797 140.293C201.227 140.24 201.638 140.08 201.992 139.828C202.173 139.699 202.349 139.997 202.169 140.126C201.776 140.402 201.322 140.578 200.847 140.638C200.371 140.697 199.889 140.639 199.44 140.469C199.397 140.456 199.36 140.427 199.337 140.388C199.313 140.35 199.306 140.303 199.316 140.259C199.327 140.214 199.355 140.176 199.395 140.153C199.434 140.129 199.481 140.122 199.525 140.133Z" fill="white"/>
<path d="M226.745 146.152C226.636 146.237 226.523 146.321 226.414 146.409C224.93 147.548 223.541 148.806 222.261 150.171C222.161 150.274 222.06 150.381 221.964 150.488L221.96 150.491C218.924 153.798 216.523 157.639 214.879 161.821L214.87 161.85C214.866 161.859 214.863 161.865 214.86 161.874C214.209 163.549 213.683 165.269 213.288 167.022C212.907 168.735 212.595 170.568 211.997 172.217C211.907 172.472 211.807 172.722 211.7 172.964H197.806C197.853 172.716 197.904 172.465 197.953 172.217C198.66 168.585 199.765 165.041 201.247 161.652C201.297 161.539 201.347 161.426 201.403 161.313C202.169 159.638 203.069 158.029 204.094 156.501C204.094 156.5 204.094 156.5 204.094 156.5C204.095 156.499 204.095 156.499 204.095 156.499C204.095 156.498 204.096 156.498 204.096 156.498C204.097 156.498 204.097 156.498 204.097 156.498C204.66 155.664 205.265 154.859 205.91 154.087C207.581 152.092 209.556 150.374 211.76 148.995C211.772 148.986 211.788 148.98 211.801 148.97C216.188 146.24 221.389 144.938 226.36 146.064H226.363C226.492 146.092 226.617 146.121 226.745 146.152Z" fill="#E3D878"/>
<path d="M226.729 146.318C226.623 146.346 226.517 146.377 226.414 146.409C224.224 147.037 222.11 147.906 220.11 149.002C220.01 149.055 219.911 149.111 219.81 149.168C217.048 150.714 214.54 152.68 212.376 154.996C212.374 154.998 212.373 155 212.373 155.002C212.348 155.027 212.319 155.056 212.298 155.081C211.798 155.62 211.317 156.181 210.86 156.758C209.968 157.833 209.248 159.042 208.729 160.341C208.332 161.424 208.192 162.584 208.319 163.731C208.329 163.846 208.344 163.959 208.36 164.075C208.373 164.166 208.385 164.257 208.401 164.351C208.607 165.608 208.963 166.869 208.863 168.151C208.802 168.808 208.604 169.445 208.28 170.019C207.956 170.593 207.515 171.093 206.985 171.484C206.625 171.763 206.24 172.009 205.835 172.217C205.256 172.517 204.653 172.766 204.032 172.964H202.803C202.969 172.917 203.132 172.87 203.298 172.822C203.885 172.656 204.462 172.454 205.026 172.217C205.347 172.083 205.66 171.928 205.963 171.754C207.219 171.029 208.266 169.919 208.485 168.436C208.676 167.138 208.307 165.841 208.088 164.571C208.051 164.351 208.016 164.135 207.998 163.918C207.848 162.819 207.939 161.7 208.263 160.64C208.713 159.316 209.385 158.08 210.251 156.984C210.786 156.27 211.358 155.585 211.963 154.93C212.038 154.846 212.117 154.761 212.198 154.676C214.407 152.344 216.959 150.364 219.764 148.804H219.767C221.852 147.639 224.065 146.72 226.36 146.064H226.364C226.467 146.033 226.573 146.001 226.677 145.973C226.892 145.917 226.942 146.258 226.729 146.318Z" fill="white"/>
<path d="M212.074 155.049C211.319 154.25 210.872 153.207 210.813 152.108C210.754 151.008 211.086 149.923 211.75 149.047C211.885 148.87 212.166 149.072 212.03 149.249C211.41 150.065 211.101 151.075 211.158 152.099C211.216 153.122 211.636 154.092 212.343 154.832C212.497 154.993 212.226 155.21 212.074 155.049Z" fill="white"/>
<path d="M208.211 163.729C210.454 163.81 212.644 163.04 214.346 161.573C214.514 161.428 214.731 161.698 214.562 161.843C212.789 163.366 210.507 164.163 208.174 164.073C207.952 164.064 207.99 163.72 208.211 163.729Z" fill="white"/>
<path d="M220.052 148.911C220.28 149.281 220.596 149.589 220.971 149.807C221.347 150.024 221.771 150.145 222.204 150.158C222.427 150.164 222.388 150.508 222.167 150.502C221.688 150.486 221.22 150.352 220.805 150.112C220.389 149.873 220.039 149.535 219.783 149.128C219.756 149.092 219.743 149.047 219.748 149.001C219.753 148.956 219.775 148.914 219.809 148.885C219.845 148.856 219.891 148.843 219.936 148.848C219.981 148.853 220.023 148.875 220.052 148.911Z" fill="white"/>
<path d="M123.123 213.123C122.67 214.829 121.479 216.249 120.042 217.283C119.807 217.453 119.567 217.609 119.323 217.757C119.248 217.801 119.172 217.848 119.094 217.888C119.01 217.939 118.926 217.986 118.841 218.03H112.082C111.96 217.782 111.841 217.531 111.722 217.283C108.826 211.176 106.791 204.586 107.138 197.874C107.276 195.27 107.821 192.704 108.754 190.271C110.61 185.421 113.997 181.223 118.657 179.11C118.773 179.056 118.895 179.003 119.013 178.953C118.976 179.088 118.938 179.219 118.901 179.354C118.401 181.161 118.048 183.005 117.844 184.869C117.826 185.013 117.81 185.158 117.798 185.305C117.354 189.8 117.748 194.338 118.96 198.689C118.963 198.698 118.967 198.711 118.97 198.72C119.235 199.683 119.543 200.63 119.895 201.564C120.169 202.301 120.466 203.028 120.791 203.743C122.148 206.743 123.967 209.941 123.123 213.123Z" fill="#E3D878"/>
<path d="M119.097 179.094C119.032 179.182 118.966 179.267 118.901 179.354C117.528 181.179 116.362 183.152 115.425 185.236C115.376 185.339 115.329 185.443 115.288 185.55C114.004 188.459 113.18 191.552 112.844 194.717C112.84 194.738 112.838 194.76 112.838 194.782C112.76 195.522 112.713 196.268 112.694 197.015C112.625 198.413 112.775 199.814 113.141 201.166C113.474 202.269 114.059 203.28 114.847 204.119C114.926 204.203 115.004 204.288 115.088 204.37C115.151 204.436 115.219 204.502 115.285 204.564C115.916 205.169 116.607 205.73 117.201 206.379C117.473 206.67 117.719 206.985 117.935 207.32C118.281 207.881 118.504 208.509 118.59 209.163C118.676 209.817 118.623 210.482 118.435 211.114C118.01 212.7 117.038 214.039 116.044 215.314C115.548 215.954 115.035 216.6 114.591 217.283C114.429 217.528 114.279 217.776 114.141 218.03H113.747C113.879 217.776 114.022 217.528 114.178 217.283C115.319 215.481 116.941 213.932 117.782 211.948C118.351 210.609 118.523 209.091 117.804 207.778C117.593 207.396 117.338 207.04 117.044 206.718C116.473 206.069 115.788 205.514 115.166 204.928C115.01 204.78 114.857 204.63 114.71 204.473C113.931 203.68 113.331 202.728 112.948 201.683C112.514 200.355 112.309 198.963 112.341 197.566C112.341 196.676 112.388 195.779 112.476 194.889C112.485 194.776 112.497 194.66 112.51 194.544C113.149 188.941 115.271 183.612 118.657 179.11C118.72 179.022 118.785 178.937 118.851 178.852C118.985 178.677 119.232 178.922 119.097 179.094Z" fill="white"/>
<path d="M112.636 194.918C111.553 194.736 110.571 194.174 109.864 193.331C109.157 192.489 108.771 191.423 108.775 190.321C108.776 190.277 108.794 190.234 108.825 190.202C108.857 190.17 108.899 190.151 108.944 190.15C108.989 190.149 109.032 190.166 109.065 190.196C109.098 190.227 109.118 190.269 109.12 190.314C109.114 191.339 109.474 192.333 110.134 193.116C110.794 193.899 111.712 194.419 112.72 194.583C112.939 194.619 112.854 194.954 112.636 194.918Z" fill="white"/>
<path d="M114.761 204.182C116.6 202.892 117.887 200.955 118.365 198.756C118.413 198.538 118.747 198.622 118.7 198.84C118.198 201.128 116.855 203.142 114.938 204.479C114.755 204.606 114.579 204.309 114.761 204.182V204.182Z" fill="white"/>
<path d="M115.322 185.199C115.726 185.357 116.163 185.412 116.594 185.359C117.025 185.306 117.435 185.146 117.789 184.895C117.97 184.765 118.146 185.063 117.966 185.192C117.574 185.468 117.12 185.644 116.644 185.703C116.169 185.763 115.686 185.705 115.238 185.535C115.194 185.522 115.157 185.494 115.134 185.455C115.11 185.415 115.103 185.369 115.112 185.324C115.124 185.28 115.153 185.242 115.191 185.218C115.231 185.195 115.278 185.188 115.322 185.199Z" fill="white"/>
<path d="M142.542 191.218C142.433 191.302 142.32 191.387 142.211 191.475C140.727 192.614 139.338 193.872 138.058 195.237C137.958 195.34 137.858 195.447 137.761 195.553L137.758 195.557C134.721 198.864 132.32 202.705 130.676 206.887L130.667 206.916C130.664 206.925 130.661 206.931 130.658 206.94C130.006 208.615 129.48 210.335 129.085 212.088C128.704 213.8 128.392 215.634 127.795 217.283C127.704 217.537 127.604 217.788 127.498 218.03H113.604C113.651 217.782 113.7 217.531 113.751 217.283C114.457 213.651 115.562 210.107 117.044 206.718C117.095 206.605 117.144 206.492 117.201 206.379C117.966 204.704 118.866 203.095 119.892 201.567C119.892 201.566 119.892 201.566 119.892 201.566C119.892 201.565 119.892 201.565 119.893 201.565C119.893 201.564 119.893 201.564 119.894 201.564C119.894 201.564 119.894 201.564 119.895 201.564C120.458 200.73 121.063 199.925 121.707 199.153C123.378 197.158 125.353 195.44 127.557 194.061C127.57 194.052 127.585 194.046 127.598 194.036C131.986 191.306 137.186 190.004 142.158 191.13H142.161C142.289 191.158 142.414 191.186 142.542 191.218Z" fill="#E3D878"/>
<path d="M142.527 191.384C142.421 191.412 142.314 191.443 142.211 191.475C140.021 192.102 137.907 192.972 135.908 194.067C135.808 194.121 135.707 194.177 135.608 194.234C132.845 195.781 130.337 197.747 128.173 200.062C128.171 200.064 128.17 200.066 128.17 200.068C128.145 200.093 128.117 200.122 128.095 200.147C127.595 200.686 127.114 201.247 126.657 201.824C125.765 202.9 125.046 204.109 124.526 205.407C124.129 206.49 123.989 207.65 124.117 208.796C124.126 208.912 124.142 209.026 124.157 209.142C124.17 209.232 124.182 209.323 124.198 209.418C124.404 210.675 124.76 211.935 124.661 213.217C124.6 213.874 124.401 214.511 124.077 215.085C123.753 215.66 123.312 216.159 122.782 216.55C122.422 216.829 122.037 217.075 121.632 217.283C121.054 217.583 120.45 217.832 119.829 218.03H118.601C118.766 217.983 118.929 217.935 119.094 217.888C119.682 217.722 120.259 217.52 120.823 217.283C121.145 217.149 121.458 216.993 121.761 216.82C123.017 216.095 124.063 214.985 124.282 213.502C124.473 212.205 124.104 210.907 123.886 209.637C123.848 209.418 123.814 209.201 123.795 208.985C123.646 207.885 123.736 206.766 124.06 205.705C124.51 204.382 125.183 203.145 126.048 202.05C126.583 201.336 127.155 200.651 127.761 199.996C127.836 199.912 127.914 199.827 127.995 199.742C130.205 197.41 132.756 195.43 135.561 193.87H135.564C137.649 192.705 139.862 191.786 142.158 191.13H142.161C142.264 191.099 142.371 191.068 142.473 191.039C142.689 190.983 142.739 191.324 142.527 191.384Z" fill="white"/>
<path d="M127.871 200.115C127.116 199.316 126.669 198.273 126.61 197.174C126.551 196.074 126.883 194.989 127.548 194.113C127.682 193.936 127.963 194.138 127.827 194.315C127.207 195.13 126.898 196.141 126.955 197.165C127.013 198.188 127.433 199.158 128.14 199.898C128.293 200.059 128.024 200.275 127.871 200.115Z" fill="white"/>
<path d="M124.009 208.795C126.251 208.876 128.441 208.106 130.143 206.639C130.311 206.493 130.527 206.763 130.359 206.909C128.585 208.432 126.305 209.228 123.971 209.139C123.749 209.13 123.787 208.786 124.009 208.795Z" fill="white"/>
<path d="M135.849 193.977C136.077 194.347 136.393 194.655 136.768 194.873C137.144 195.091 137.568 195.211 138.002 195.224C138.223 195.229 138.185 195.574 137.964 195.568C137.485 195.552 137.017 195.418 136.602 195.178C136.186 194.939 135.835 194.601 135.58 194.194C135.553 194.158 135.54 194.112 135.545 194.067C135.55 194.022 135.572 193.981 135.606 193.951C135.642 193.922 135.688 193.909 135.733 193.914C135.778 193.919 135.82 193.942 135.849 193.977Z" fill="white"/>
<path d="M138.15 127.758C140.221 127.758 141.9 126.073 141.9 123.995C141.9 121.918 140.221 120.233 138.15 120.233C136.079 120.233 134.4 121.918 134.4 123.995C134.4 126.073 136.079 127.758 138.15 127.758Z" fill="#F2F2F2"/>
<path d="M184.737 82.6922C186.808 82.6922 188.487 81.0078 188.487 78.9303C188.487 76.8524 186.808 75.168 184.737 75.168C182.665 75.168 180.987 76.8524 180.987 78.9303C180.987 81.0078 182.665 82.6922 184.737 82.6922Z" fill="#F2F2F2"/>
<path d="M55.9844 7.52442C58.0552 7.52442 59.7345 5.83998 59.7345 3.7622C59.7345 1.68439 58.0552 0 55.9844 0C53.9132 0 52.2339 1.68439 52.2339 3.7622C52.2339 5.83998 53.9132 7.52442 55.9844 7.52442Z" fill="#F2F2F2"/>
<path d="M0.389704 218.629H233.611C233.714 218.629 233.813 218.588 233.886 218.515C233.959 218.441 234 218.341 234 218.238C234 218.134 233.959 218.035 233.886 217.961C233.813 217.888 233.714 217.847 233.611 217.847H0.389704C0.286349 217.847 0.187227 217.888 0.114144 217.961C0.0410613 218.035 0 218.134 0 218.238C0 218.341 0.0410613 218.441 0.114144 218.515C0.187227 218.588 0.286349 218.629 0.389704 218.629Z" fill="#CCCCCC"/>
<path opacity="0.2" d="M142.815 39.7722C144.524 42.7021 145.137 46.1463 144.545 49.4883C143.954 52.8301 142.196 55.8522 139.586 58.0124C136.977 60.1731 133.686 61.3312 130.303 61.2802C126.92 61.2293 123.666 59.9718 121.122 57.7333C122.164 59.5222 123.58 61.0628 125.273 62.2486C126.967 63.4339 128.897 64.2362 130.93 64.599C132.963 64.9624 135.05 64.8776 137.047 64.3513C139.045 63.825 140.904 62.8692 142.497 61.5507C144.09 60.2322 145.377 58.5816 146.272 56.7145C147.166 54.847 147.644 52.8069 147.675 50.7354C147.705 48.6639 147.286 46.6106 146.447 44.7176C145.608 42.8246 144.369 41.1372 142.815 39.7722Z" fill="#231F20"/>
<path opacity="0.2" d="M160.31 20.2725C172.008 35.4454 174.025 57.2519 161.064 71.9057C146.583 88.2782 103.997 91.8519 74.657 120.13C75.1456 123.079 75.8506 125.988 76.767 128.833C106.121 97.727 151.217 94.4945 166.206 77.5487C180.882 60.9552 176.353 35.1914 160.31 20.2725Z" fill="#231F20"/>
</svg>
